<?xml version="1.0" standalone="no"?><svg xmlns="http://www.w3.org/2000/svg" viewBox="0 0 1440 320"><path fill="#e7008a" fill-opacity="0.1" d="M0,224L14.1,224C28.2,224,56,224,85,192C112.9,160,141,96,169,96C197.6,96,226,160,254,208C282.4,256,311,288,339,277.3C367.1,267,395,213,424,208C451.8,203,480,245,508,229.3C536.5,213,565,139,593,128C621.2,117,649,171,678,192C705.9,213,734,203,762,181.3C790.6,160,819,128,847,112C875.3,96,904,96,932,90.7C960,85,988,75,1016,106.7C1044.7,139,1073,213,1101,213.3C1129.4,213,1158,139,1186,122.7C1214.1,107,1242,149,1271,165.3C1298.8,181,1327,171,1355,176C1383.5,181,1412,203,1426,213.3L1440,224L1440,320L1425.9,320C1411.8,320,1384,320,1355,320C1327.1,320,1299,320,1271,320C1242.4,320,1214,320,1186,320C1157.6,320,1129,320,1101,320C1072.9,320,1045,320,1016,320C988.2,320,960,320,932,320C903.5,320,875,320,847,320C818.8,320,791,320,762,320C734.1,320,706,320,678,320C649.4,320,621,320,593,320C564.7,320,536,320,508,320C480,320,452,320,424,320C395.3,320,367,320,339,320C310.6,320,282,320,254,320C225.9,320,198,320,169,320C141.2,320,113,320,85,320C56.5,320,28,320,14,320L0,320Z"></path></svg>